<?xml version="1.0" encoding="UTF-8" standalone="no"?>
<!DOCTYPE svg PUBLIC "-//W3C//DTD SVG 1.1//EN" "http://www.w3.org/Graphics/SVG/1.1/DTD/svg11.dtd">
<svg xmlns="http://www.w3.org/2000/svg" xml:space="preserve" version="1.1" viewBox="0 0 2800 1024">
<path d="M4.95403e-06-3.56258e-05L2800-3.56258e-05L2800+1024L4.95403e-06+1024L4.95403e-06-3.56258e-05Z" opacity="1" fill="#ffffff"/>
<path stroke="#000000" stroke-width="0.1" d="M403.078+162.332L259.481+721.801L393.754+297.537" fill="#9a6aaa" stroke-linecap="round" opacity="1" stroke-linejoin="round"/>
<path stroke="#000000" stroke-width="0.1" d="M259.481+721.801L259.481+297.537L250.157+162.332L403.078+162.332" fill="#641b7c" stroke-linecap="round" opacity="1" stroke-linejoin="round"/>
<path stroke="#000000" stroke-width="0.1" d="M250.157+861.668L297.771+673.267L393.754+297.537L259.481+721.801" fill="#ffaf00" stroke-linecap="round" opacity="1" stroke-linejoin="round"/>
<path stroke="#000000" stroke-width="0.1" d="M545.369+732.99L683.745+732.99L663.231+861.668L433.548+861.668L250.157+861.668" fill="#32d7f4" stroke-linecap="round" opacity="1" stroke-linejoin="round"/>
<path stroke="#000000" stroke-width="0.1" d="M393.754+297.537L393.754+721.801L394.686+732.99L250.157+861.668" fill="#310d3c" stroke-linecap="round" opacity="1" stroke-linejoin="round"/>
<path stroke="#000000" stroke-width="0.1" d="M390.071+732.99L545.369+732.99L250.157+861.668L390.071+732.99Z" fill="#ffd600" stroke-linecap="round" fill-opacity="0.882812" opacity="1" stroke-linejoin="round"/>
<path d="M802.824+735.265L802.824+315.728L794.516+195.267L927.438+195.267L919.131+315.728L919.131+735.265L927.438+859.88L794.516+859.88L802.824+735.265Z" opacity="1" fill="#641b7c"/>
<path d="M1399.31+736.096L1407.62+859.88L1285.5+859.88L1282.18+800.895C1251.16+846.864+1206.02+869.849+1146.76+869.849C1107.44+869.849+1076.7+856.972+1054.55+831.218C1032.39+805.465+1021.32+769.049+1021.32+721.973L1021.32+486.035L1013.01+361.42L1145.93+361.42L1137.62+486.035L1137.62+699.542C1137.62+718.927+1142.88+734.434+1153.41+746.065C1163.93+757.696+1177.5+763.511+1194.11+763.511C1226.79+763.511+1256.42+743.296+1283.01+702.865L1283.01+486.035L1274.7+361.42L1407.62+361.42L1399.31+486.035L1399.31+736.096Z" opacity="1" fill="#641b7c"/>
<path d="M1564.64+315.728C1543.59+315.728+1525.73+309.774+1511.05+297.867C1496.37+285.959+1489.04+270.59+1489.04+251.759C1489.04+232.375+1496.37+216.729+1511.05+204.821C1525.73+192.913+1543.59+186.959+1564.64+186.959C1585.68+186.959+1603.54+192.913+1618.22+204.821C1632.9+216.729+1640.24+232.375+1640.24+251.759C1640.24+270.59+1632.9+285.959+1618.22+297.867C1603.54+309.774+1585.68+315.728+1564.64+315.728ZM1505.65+735.265L1505.65+481.881L1497.34+361.42L1630.27+361.42L1621.96+481.881L1621.96+735.265L1630.27+859.88L1497.34+859.88L1505.65+735.265Z" opacity="1" fill="#641b7c"/>
<path d="M2039+529.235C2067.25+546.404+2088.99+568.419+2104.22+595.281C2119.45+622.142+2127.06+653.019+2127.06+687.911C2127.06+745.511+2107.96+790.788+2069.74+823.741C2031.53+856.695+1980.57+873.172+1916.88+873.172C1849.87+873.172+1797.8+857.941+1760.7+827.48C1723.59+797.019+1705.04+753.819+1705.04+697.88C1705.04+666.311+1712.37+637.788+1727.05+612.312C1741.73+586.835+1762.91+566.066+1790.6+550.004C1766.79+533.389+1747.96+513.174+1734.11+489.358C1720.27+465.543+1713.34+440.343+1713.34+413.759C1713.34+373.882+1722.76+339.543+1741.59+310.744C1760.42+281.944+1785.48+260.205+1816.77+245.528C1848.07+230.852+1882.54+223.513+1920.2+223.513C1957.31+223.513+1990.4+230.436+2019.48+244.282C2048.56+258.128+2071.26+277.79+2087.6+303.267C2103.94+328.743+2112.11+358.651+2112.11+392.989C2112.11+422.343+2106.43+447.82+2095.08+469.42C2083.73+491.02+2065.03+510.958+2039+529.235ZM1915.22+338.159C1888.63+338.159+1868.28+343.697+1854.16+354.774C1840.03+365.851+1832.97+381.912+1832.97+402.959C1832.97+440.62+1870.36+470.804+1945.13+493.512C1963.4+480.22+1976.56+466.512+1984.59+452.389C1992.62+438.266+1996.63+421.789+1996.63+402.959C1996.63+381.912+1989.43+365.851+1975.03+354.774C1960.63+343.697+1940.7+338.159+1915.22+338.159ZM1911.07+756.034C1943.19+756.034+1967.28+750.08+1983.34+738.173C1999.4+726.265+2007.43+707.019+2007.43+680.434C2007.43+658.834+1996.5+640.558+1974.62+625.604C1952.74+610.65+1921.31+597.912+1880.33+587.389C1859.83+597.912+1844.33+611.204+1833.8+627.265C1823.28+643.327+1818.02+661.05+1818.02+680.434C1818.02+705.357+1826.19+724.188+1842.53+736.926C1858.87+749.665+1881.71+756.034+1911.07+756.034Z" opacity="1" fill="#641b7c"/>
<path d="M2353.86+466.097C2425.86+466.097+2480.56+483.404+2517.94+518.02C2555.32+552.635+2574.02+604.835+2574.02+674.619C2574.02+714.496+2565.57+749.388+2548.68+779.296C2531.79+809.203+2507.97+832.326+2477.23+848.664C2446.49+865.003+2410.91+873.172+2370.48+873.172C2337.8+873.172+2307.06+868.603+2278.26+859.464C2249.46+850.326+2225.65+837.449+2206.82+820.834L2191.86+697.88L2201+696.219C2228.14+738.311+2279.09+759.357+2353.86+759.357C2381.56+759.357+2404.82+751.188+2423.65+734.85C2442.48+718.511+2451.89+698.434+2451.89+674.619C2451.89+643.604+2443.17+619.788+2425.72+603.173C2408.28+586.558+2384.32+578.25+2353.86+578.25L2210.97+578.25L2210.97+530.897L2240.88+236.805L2554.08+236.805L2538.29+339.82L2525+348.959L2348.88+348.959L2338.91+466.097L2353.86+466.097Z" opacity="1" fill="#641b7c"/>
</svg>
